<svg xmlns="http://www.w3.org/2000/svg" width="23" height="34" viewBox="0 0 23 34">
  <g id="Arrow" transform="translate(23) rotate(90)" fill="#020202">
    <path d="M 28.05208015441895 22.50000762939453 L 5.947919845581055 22.50000762939453 C 4.984210014343262 22.50000762939453 4.14976978302002 21.98630714416504 3.71577000617981 21.12584686279297 C 3.281780004501343 20.2653980255127 3.364660024642944 19.28900718688965 3.937479972839355 18.5140266418457 L 14.9895601272583 3.56120753288269 C 15.46586990356445 2.916777372360229 16.19865036010742 2.547187328338623 17 2.547187328338623 C 17.80134963989258 2.547187328338623 18.53413009643555 2.916777372360229 19.01044082641602 3.56120753288269 L 30.06251907348633 18.5140266418457 C 30.63533973693848 19.28901672363281 30.71821975708008 20.2653980255127 30.28422927856445 21.12584686279297 C 29.85024070739746 21.98630714416504 29.01579093933105 22.50000762939453 28.05208015441895 22.50000762939453 Z" stroke="none"/>
    <path d="M 17 3.047178268432617 C 16.35891914367676 3.047178268432617 15.7726993560791 3.342857360839844 15.39164924621582 3.858396530151367 L 4.339569091796875 18.81121826171875 C 3.881309509277344 19.43120765686035 3.815010070800781 20.21231842041016 4.162200927734375 20.90067672729492 C 4.509389877319336 21.58903694152832 5.176950454711914 21.99999809265137 5.947919845581055 21.99999809265137 L 28.05208015441895 21.99999809265137 C 28.82304954528809 21.99999809265137 29.49061012268066 21.58903694152832 29.83779907226562 20.90067672729492 C 30.18498992919922 20.21231842041016 30.11869049072266 19.43120765686035 29.66043090820312 18.81121826171875 L 18.60836029052734 3.858396530151367 C 18.22729873657227 3.342857360839844 17.64108085632324 3.047178268432617 17 3.047178268432617 M 17 2.047178268432617 C 17.90646743774414 2.047178268432617 18.81293487548828 2.452787399291992 19.41252899169922 3.264007568359375 L 30.4646110534668 18.21682739257812 C 31.92828941345215 20.19709777832031 30.51457023620605 22.99999809265137 28.05208015441895 22.99999809265137 L 5.947919845581055 22.99999809265137 C 3.485429763793945 22.99999809265137 2.071710586547852 20.19709777832031 3.535390853881836 18.21682739257812 L 14.58746910095215 3.264007568359375 C 15.18706512451172 2.452787399291992 16.09353256225586 2.047178268432617 17 2.047178268432617 Z" stroke="none" fill="#707070"/>
  </g>
</svg>
